<?xml version="1.0" standalone="no"?>
<!DOCTYPE svg PUBLIC "-//W3C//DTD SVG 20010904//EN"
 "http://www.w3.org/TR/2001/REC-SVG-20010904/DTD/svg10.dtd">
<svg version="1.0" xmlns="http://www.w3.org/2000/svg"
 width="280.000000pt" height="280.000000pt" viewBox="0 0 280.000000 280.000000"
 preserveAspectRatio="xMidYMid meet">

<g transform="translate(0.000000,280.000000) scale(0.100000,-0.100000)"
fill="#000000" stroke="none">
<path d="M10 2569 l0 -231 23 6 c45 13 256 57 392 81 275 48 738 95 948 95 64
0 157 11 275 31 145 26 210 32 362 35 217 5 214 -5 -10 -36 -85 -12 -156 -23
-157 -24 -1 -1 86 -8 195 -15 223 -14 406 -33 602 -61 74 -11 141 -20 148 -20
9 0 12 44 12 185 l0 185 -1395 0 -1395 0 0 -231z"/>
<path d="M1280 2410 c-200 -52 -459 -135 -630 -202 l-136 -53 211 -3 c323 -4
720 -38 1009 -87 l139 -23 121 53 c203 88 534 203 680 236 102 22 93 25 -205
64 -248 31 -456 46 -739 51 l-295 5 -155 -41z"/>
<path d="M880 2429 c-281 -27 -580 -67 -757 -101 l-113 -22 0 -89 0 -89 53 5
c28 4 92 9 142 13 67 5 105 14 155 36 158 72 403 159 625 222 l120 34 -70 0
c-38 0 -108 -4 -155 -9z"/>
<path d="M2775 2285 c-5 -2 -84 -27 -175 -55 -170 -53 -398 -138 -510 -189
l-64 -28 100 -22 c151 -34 374 -95 527 -146 76 -25 140 -45 143 -45 2 0 4 110
4 245 0 135 -3 245 -7 244 -5 0 -12 -2 -18 -4z"/>
<path d="M370 2080 c-42 -8 -236 -102 -322 -157 l-38 -23 0 -178 0 -178 277
-12 c264 -12 459 -28 656 -54 l89 -11 51 50 c79 75 173 153 267 220 88 64 340
218 372 229 39 12 14 22 -94 38 -280 40 -537 63 -873 76 -282 11 -321 11 -385
0z"/>
<path d="M10 2041 l0 -30 48 26 c26 15 49 28 51 30 2 2 -19 3 -47 3 -51 0 -52
-1 -52 -29z"/>
<path d="M1840 1924 c-292 -161 -448 -267 -645 -437 -45 -39 -45 -39 60 -56
455 -75 981 -234 1329 -402 22 -10 40 -18 41 -16 1 1 21 39 45 84 23 44 62
107 87 140 l43 58 -2 214 -3 215 -120 39 c-130 42 -335 100 -430 121 -33 8
-114 26 -180 40 -66 14 -129 28 -140 31 -11 2 -48 -11 -85 -31z"/>
<path d="M10 1083 l0 -383 320 0 320 0 4 23 c47 258 105 396 248 588 l65 87
-56 6 c-268 33 -542 54 -773 59 l-128 3 0 -383z"/>
<path d="M1005 1288 c-150 -178 -254 -365 -301 -540 l-12 -48 924 0 924 0 0
23 c0 20 40 181 55 219 5 13 -21 27 -152 78 -411 162 -875 287 -1319 355 l-41
6 -78 -93z"/>
<path d="M2762 1088 c-33 -48 -65 -109 -60 -112 2 -2 24 -15 51 -30 l47 -28 0
106 c0 58 -2 106 -5 106 -2 0 -17 -19 -33 -42z"/>
<path d="M2635 853 c-15 -37 -33 -87 -40 -110 l-13 -43 109 0 109 0 0 80 0 80
-47 24 c-90 44 -87 45 -118 -31z"/>
<path d="M0 270 l0 -260 225 0 225 0 0 60 0 60 -145 0 -145 0 0 40 0 40 140 0
140 0 0 60 0 60 -140 0 -140 0 0 40 0 40 145 0 145 0 0 60 0 60 -225 0 -225 0
0 -260z"/>
<path d="M530 270 l0 -260 80 0 80 0 0 80 0 80 91 0 c101 0 163 13 197 40 69
57 69 223 0 280 -38 31 -99 40 -277 40 l-171 0 0 -260z m328 128 c7 -7 12 -31
12 -54 0 -36 -4 -43 -28 -53 -16 -7 -58 -11 -93 -9 l-64 3 -3 63 -3 62 84 0
c51 0 88 -5 95 -12z"/>
<path d="M1100 271 l0 -261 80 0 80 0 0 79 0 79 113 4 c181 6 227 41 227 176
0 87 -15 121 -67 154 -36 22 -49 23 -235 26 l-198 4 0 -261z m332 122 c24 -21
23 -68 -2 -93 -16 -16 -33 -20 -95 -20 l-75 0 0 65 0 65 77 0 c57 0 81 -4 95
-17z"/>
<path d="M1670 270 l0 -260 73 0 72 0 -3 260 -3 260 -69 0 -70 0 0 -260z"/>
<path d="M2510 374 c-89 -17 -130 -52 -130 -109 0 -68 46 -97 187 -118 67 -10
78 -15 78 -32 0 -17 -8 -20 -51 -23 -36 -2 -56 2 -67 13 -11 10 -35 15 -81 15
-63 0 -66 -1 -66 -24 0 -31 49 -73 98 -83 46 -10 188 -10 224 0 14 4 40 19 57
33 26 22 31 33 31 70 0 73 -35 94 -195 119 -60 9 -75 15 -75 30 0 24 101 28
116 4 3 -5 37 -9 75 -9 68 0 70 1 63 23 -9 32 -34 58 -71 73 -34 15 -152 25
-193 18z"/>
<path d="M1894 293 c3 -42 6 -109 6 -150 0 -68 2 -77 28 -102 49 -49 166 -49
218 0 l24 22 0 -26 c0 -27 1 -27 70 -27 l70 0 0 180 0 180 -70 0 -70 0 0 -106
c0 -132 -14 -164 -72 -164 -50 0 -58 20 -58 151 l0 119 -76 0 -77 0 7 -77z"/>
</g>
</svg>
